<?xml version="1.0" standalone="no"?>
<!DOCTYPE svg PUBLIC "-//W3C//DTD SVG 20010904//EN"
 "http://www.w3.org/TR/2001/REC-SVG-20010904/DTD/svg10.dtd">
<svg version="1.0" xmlns="http://www.w3.org/2000/svg"
 width="276.000000pt" height="188.000000pt" viewBox="0 0 276.000000 188.000000"
 preserveAspectRatio="xMidYMid meet">

<g transform="translate(0.000000,188.000000) scale(0.100000,-0.100000)"
fill="#000000" stroke="none">
<path d="M0 940 l0 -940 1380 0 1380 0 0 940 0 940 -1380 0 -1380 0 0 -940z
m706 855 c101 -37 201 -122 252 -212 5 -9 18 -9 47 -3 75 18 279 40 365 40 90
0 330 -24 393 -39 36 -9 38 -8 66 33 140 204 401 269 629 158 60 -29 147 -109
185 -170 111 -176 95 -415 -38 -570 l-37 -43 -2 -122 c-2 -101 -6 -132 -26
-182 -86 -222 -289 -365 -515 -365 -141 0 -269 51 -380 153 -112 102 -200 135
-314 116 -75 -12 -124 -39 -211 -115 -132 -116 -254 -161 -410 -151 -192 12
-360 119 -449 286 -43 82 -61 164 -61 281 l0 103 -35 38 c-155 172 -152 457 9
636 134 149 342 199 532 128z m792 -1315 c97 -59 95 -201 -4 -257 -49 -28
-158 -32 -211 -7 -95 46 -112 177 -31 250 32 30 42 32 133 33 63 1 87 -3 113
-19z m-284 -331 c40 -44 89 -62 171 -62 82 0 131 18 171 62 30 34 51 39 60 16
10 -25 -34 -73 -94 -102 -48 -24 -70 -28 -137 -28 -67 0 -89 4 -137 28 -60 29
-104 77 -94 102 9 23 30 18 60 -16z"/>
<path d="M384 1531 c-102 -26 -190 -103 -219 -192 -23 -69 -21 -167 6 -228 30
-71 43 -79 60 -39 50 121 175 250 334 345 85 51 86 52 63 67 -65 43 -177 64
-244 47z"/>
<path d="M2240 1531 c-36 -11 -108 -49 -115 -61 -3 -5 18 -21 47 -36 142 -71
284 -206 339 -322 19 -39 38 -70 43 -68 5 1 21 24 35 51 66 127 23 304 -94
385 -72 49 -185 72 -255 51z"/>
</g>
</svg>
